<svg width="18" height="18" viewBox="0 0 18 18" fill="none" xmlns="http://www.w3.org/2000/svg">
<g id="Messages-Bubble--Streamline-Ultimate" clip-path="url(#clip0_30671_15860)">
<path id="Vector" d="M9.53125 1.03126C8.20582 1.02935 6.90402 1.38218 5.76095 2.05313C4.61789 2.72409 3.6752 3.68872 3.03073 4.84692C2.38626 6.00512 2.06348 7.31469 2.09589 8.63973C2.1283 9.96477 2.51471 11.257 3.21504 12.3823L1.03125 16.9688L5.617 14.785C6.595 15.393 7.70084 15.7657 8.84739 15.8736C9.99394 15.9814 11.1499 15.8216 12.2241 15.4066C13.2984 14.9916 14.2616 14.3328 15.0379 13.4822C15.8141 12.6315 16.3823 11.6122 16.6975 10.5046C17.0127 9.39696 17.0664 8.23125 16.8544 7.09933C16.6424 5.9674 16.1704 4.90018 15.4756 3.98174C14.7808 3.06331 13.8823 2.31876 12.8507 1.80675C11.8192 1.29475 10.6829 1.02928 9.53125 1.03126Z" stroke="black" stroke-width="1.2" stroke-linecap="round" stroke-linejoin="round"/>
</g>
<defs>
<clipPath id="clip0_30671_15860">
<rect width="18" height="18" fill="white"/>
</clipPath>
</defs>
</svg>
