<svg xmlns="http://www.w3.org/2000/svg" width="90" height="90" fill="none" viewBox="0 0 90 90">
  <path fill="#000" d="M70.657 64.601 89 82.94 82.94 89 64.6 70.657a38.373 38.373 0 0 1-24.056 8.433C19.268 79.09 2 61.822 2 40.545S19.268 2 40.545 2 79.09 19.268 79.09 40.545a38.376 38.376 0 0 1-8.433 24.056Zm-8.591-3.178a29.894 29.894 0 0 0 8.458-20.878c0-16.562-13.418-29.98-29.98-29.98-16.56 0-29.978 13.418-29.978 29.98 0 16.561 13.417 29.98 29.979 29.98a29.894 29.894 0 0 0 20.878-8.46l.643-.642Z"/>
</svg>
