<svg xmlns="http://www.w3.org/2000/svg" width="512" height="512" fill="none" viewBox="0 0 512 512">
  <g clip-path="url(#a)">
    <path fill="#fff" d="M512 257.558c0 127.765-93.739 233.685-216.107 252.906v-178.41h59.499l11.328-73.814h-70.827v-47.893c0-20.203 9.899-39.872 41.6-39.872h32.192v-62.848s-29.226-4.992-57.152-4.992c-58.325 0-96.426 35.349-96.426 99.328v56.256h-64.832v73.813h64.832v178.411C93.76 491.2 0 385.302 0 257.558c0-141.376 114.624-256 256-256s256 114.602 256 256Z"/>
  </g>
  <defs>
    <clipPath id="a">
      <path fill="#fff" d="M0 0h512v512H0z"/>
    </clipPath>
  </defs>
</svg>
