<svg xmlns="http://www.w3.org/2000/svg" width="512" height="512" fill="none" viewBox="0 0 512 512">
  <g clip-path="url(#a)">
    <path fill="#fff" d="M256 46.123c68.352 0 76.459.256 103.445 1.493 27.904 1.28 56.64 7.637 76.971 27.968 20.523 20.523 26.688 48.981 27.968 76.971 1.237 26.986 1.493 35.093 1.493 103.445 0 68.352-.256 76.459-1.493 103.445-1.259 27.755-7.765 56.768-27.968 76.971-20.523 20.523-48.96 26.688-76.971 27.968-26.986 1.237-35.093 1.493-103.445 1.493-68.352 0-76.459-.256-103.445-1.493-27.542-1.259-56.939-7.915-76.971-27.968C55.168 416 48.896 387.264 47.616 359.445c-1.237-26.986-1.493-35.093-1.493-103.445 0-68.352.256-76.459 1.493-103.445 1.259-27.648 7.83-56.832 27.968-76.971 20.48-20.48 49.045-26.688 76.971-27.968 26.986-1.237 35.093-1.493 103.445-1.493ZM256 0c-69.525 0-78.251.299-105.557 1.536-39.574 1.813-78.87 12.821-107.478 41.43C14.251 71.68 3.35 110.89 1.536 150.442.299 177.749 0 186.475 0 256s.299 78.251 1.536 105.557c1.813 39.531 12.864 78.934 41.43 107.478 28.693 28.693 67.967 39.616 107.477 41.429C177.749 511.701 186.475 512 256 512s78.251-.299 105.557-1.536c39.552-1.813 78.891-12.843 107.478-41.429 28.736-28.736 39.616-67.926 41.429-107.478C511.701 334.251 512 325.525 512 256s-.299-78.251-1.536-105.557c-1.813-39.574-12.843-78.891-41.429-107.478-28.651-28.65-68.032-39.637-107.478-41.429C334.251.299 325.525 0 256 0Z"/>
    <path fill="#fff" d="M256.001 124.544c-72.597 0-131.456 58.859-131.456 131.456 0 72.597 58.859 131.456 131.456 131.456 72.597 0 131.456-58.859 131.456-131.456 0-72.597-58.859-131.456-131.456-131.456Zm0 216.789c-47.125 0-85.333-38.208-85.333-85.333s38.208-85.333 85.333-85.333 85.333 38.208 85.333 85.333-38.208 85.333-85.333 85.333Zm136.66-191.274c16.967 0 30.72-13.754 30.72-30.72s-13.753-30.72-30.72-30.72c-16.966 0-30.72 13.754-30.72 30.72s13.754 30.72 30.72 30.72Z"/>
  </g>
  <defs>
    <clipPath id="a">
      <path fill="#fff" d="M0 0h512v512H0z"/>
    </clipPath>
  </defs>
</svg>
